<svg width="22" height="23" viewBox="0 0 22 23" fill="none" xmlns="http://www.w3.org/2000/svg">
<path d="M20.6258 11.953C20.6258 11.1616 20.5603 10.5841 20.4185 9.98523H11.1973V13.5571H16.6099C16.5008 14.4448 15.9115 15.7816 14.602 16.6799L14.5836 16.7995L17.4992 19.013L17.7012 19.0327C19.5563 17.3537 20.6258 14.8833 20.6258 11.953Z" fill="#4285F4"/>
<path d="M11.1967 21.3643C13.8484 21.3643 16.0745 20.5087 17.7006 19.0329L14.6014 16.68C13.772 17.2468 12.6589 17.6425 11.1967 17.6425C8.59946 17.6425 6.39512 15.9635 5.60933 13.6428L5.49415 13.6524L2.4625 15.9517L2.42285 16.0598C4.03791 19.2039 7.35536 21.3643 11.1967 21.3643Z" fill="#34CAA5"/>
<path d="M5.61006 13.6429C5.40272 13.044 5.28273 12.4023 5.28273 11.7392C5.28273 11.0761 5.40272 10.4345 5.59915 9.83562L5.59366 9.70807L2.524 7.37183L2.42357 7.41864C1.75792 8.72338 1.37598 10.1885 1.37598 11.7392C1.37598 13.2899 1.75792 14.755 2.42357 16.0598L5.61006 13.6429Z" fill="#FDCF24"/>
<path d="M11.1967 5.8359C13.0409 5.8359 14.2849 6.61659 14.9943 7.269L17.7661 4.61676C16.0638 3.06607 13.8485 2.11426 11.1967 2.11426C7.35539 2.11426 4.03792 4.27452 2.42285 7.41866L5.59844 9.83564C6.39514 7.51495 8.59949 5.8359 11.1967 5.8359Z" fill="#EB4335"/>
</svg>
